<?xml version="1.0" standalone="no"?>
<!DOCTYPE svg PUBLIC "-//W3C//DTD SVG 1.1//EN" "http://www.w3.org/Graphics/SVG/1.1/DTD/svg11.dtd" >
<svg xmlns="http://www.w3.org/2000/svg" xmlns:xlink="http://www.w3.org/1999/xlink" version="1.1">
<metadata>
Created by FontForge 20170924 at Mon Nov 30 19:06:53 2020
 By root
Copyright \(c\) 2020 by Alexander Pravdin. All rights reserved.
</metadata>
<defs>
<font id="NEXTART-SemiBold" horiz-adv-x="1410" >
  <font-face 
    font-family="NEXT ART"
    font-weight="600"
    font-stretch="normal"
    units-per-em="2048"
    panose-1="2 0 8 3 3 0 0 2 0 4"
    ascent="1638"
    descent="-410"
    x-height="1433"
    cap-height="1434"
    bbox="-107 -610 2551 1845"
    underline-thickness="50"
    underline-position="-150"
    stemh="276"
    stemv="299"
    unicode-range="U+0020-2122"
  />
    <missing-glyph />
    <glyph glyph-name="space" unicode=" " horiz-adv-x="540" 
 />
    <glyph glyph-name="exclam" unicode="!" horiz-adv-x="520" 
d="M135 247h250v-247h-250v247zM156 369l-19 1065h246l-19 -1065h-208z" />
    <glyph glyph-name="quotedbl" unicode="&#x22;" horiz-adv-x="850" 
d="M136 1434h251l-22 -467h-199zM462 1434h252l-30 -467h-200z" />
    <glyph glyph-name="numbersign" unicode="#" horiz-adv-x="1493" 
d="M859 584c16 90 33 179 50 268h-273c-16 -89 -34 -178 -51 -268h274zM1341 586c-13 -68 -25 -137 -38 -204h-265c-25 -128 -49 -255 -73 -382h-222c25 127 49 254 73 382h-268l-74 -382h-220l74 382h-266c14 67 27 136 40 204h265l50 263h-265l40 203h265l74 379h218
l-72 -379h269l72 379h218l-72 -379h266c-12 -68 -26 -135 -38 -203h-267l-49 -263h265z" />
    <glyph glyph-name="dollar" unicode="$" horiz-adv-x="1256" 
d="M66 257l149 170c124 -125 283 -203 445 -203c163 0 297 83 297 210c0 157 -204 186 -418 230c-236 49 -448 133 -448 370c0 207 154 374 425 398v238h215v-251c129 -26 257 -86 366 -180l-141 -169c-98 91 -240 146 -378 146c-141 0 -254 -63 -254 -163
c0 -114 132 -144 347 -183c226 -39 523 -115 523 -437c0 -229 -194 -405 -463 -430v-241h-215v252c-152 30 -310 107 -450 243z" />
    <glyph glyph-name="percent" unicode="%" horiz-adv-x="1784" 
d="M1313 193c113 0 181 107 181 217c0 107 -65 218 -181 218c-114 0 -181 -107 -181 -218c0 -107 65 -217 181 -217zM923 407c0 222 161 414 390 414c224 0 391 -180 391 -411c0 -220 -159 -411 -391 -411c-224 0 -390 181 -390 408zM470 1243c-113 0 -181 -107 -181 -218
c0 -107 65 -217 181 -217c114 0 181 106 181 217c0 107 -65 218 -181 218zM860 1029c0 -222 -161 -415 -390 -415c-223 0 -390 180 -390 411c0 221 157 411 390 411c225 0 390 -180 390 -407zM1567 1435l-403 -543h-253l370 543h286zM216 0l404 542h253l-369 -542h-288z" />
    <glyph glyph-name="ampersand" unicode="&#x26;" horiz-adv-x="1413" 
d="M551 219c106 0 185 54 245 122l-309 347c-84 -36 -179 -112 -179 -235c0 -129 112 -234 243 -234zM1392 0h-295l-148 172c-112 -107 -245 -172 -401 -172c-250 0 -477 195 -477 450c0 181 114 313 268 397c-47 72 -74 145 -74 216c0 210 191 373 395 373
c141 0 275 -79 388 -237l-186 -134c-65 89 -133 148 -211 148c-82 0 -149 -72 -149 -150c0 -48 26 -89 92 -162l351 -397c77 122 119 270 119 451h222c0 -139 -22 -265 -66 -380c-39 -105 -91 -184 -126 -238z" />
    <glyph glyph-name="quotesingle" unicode="'" horiz-adv-x="500" 
d="M122 1434h256l-30 -468h-196z" />
    <glyph glyph-name="parenleft" unicode="(" horiz-adv-x="628" 
d="M334 1713h226c-163 -284 -241 -661 -241 -995s73 -692 241 -996h-226c-168 278 -254 664 -254 996c0 339 79 689 254 995z" />
    <glyph glyph-name="parenright" unicode=")" horiz-adv-x="629" 
d="M69 1713h226c169 -278 254 -662 254 -995c0 -332 -80 -698 -254 -996h-226c161 280 241 666 241 996s-75 695 -241 995z" />
    <glyph glyph-name="asterisk" unicode="*" horiz-adv-x="789" 
d="M312 1514h165l-4 -223l209 74l50 -157l-212 -65l135 -175l-134 -97l-126 182l-126 -182l-134 97l134 175l-212 65l51 156l209 -73z" />
    <glyph glyph-name="plus" unicode="+" horiz-adv-x="968" 
d="M376 1126h215v-318h318v-215h-318v-317h-215v317h-318v215h318v318z" />
    <glyph glyph-name="comma" unicode="," horiz-adv-x="501" 
d="M65 -229l79 486h259l-148 -486h-190z" />
    <glyph glyph-name="hyphen" unicode="-" horiz-adv-x="1041" 
d="M141 592v221h760v-221h-760z" />
    <glyph glyph-name="period" unicode="." horiz-adv-x="501" 
d="M121 0v257h259v-257h-259z" />
    <glyph glyph-name="slash" unicode="/" horiz-adv-x="1248" 
d="M953 1708h253l-913 -1995h-252z" />
    <glyph glyph-name="zero" unicode="0" horiz-adv-x="1621" 
d="M1539 717c0 -404 -311 -717 -729 -717s-728 313 -728 717s310 717 728 717s729 -313 729 -717zM1294 717c0 279 -196 495 -484 495c-287 0 -484 -216 -484 -495s197 -493 484 -493c288 0 484 214 484 493z" />
    <glyph glyph-name="one" unicode="1" horiz-adv-x="682" 
d="M60 1435h470v-1435h-240v1212h-230v223z" />
    <glyph glyph-name="two" unicode="2" horiz-adv-x="1214" 
d="M1107 223v-223h-990v218c7 304 230 422 453 508c155 62 297 108 297 252c0 136 -114 234 -254 234c-137 0 -238 -106 -251 -256h-238c13 281 225 477 489 477c254 0 492 -188 492 -449c0 -259 -195 -346 -391 -424c-173 -69 -353 -140 -359 -337h752z" />
    <glyph glyph-name="three" unicode="3" horiz-adv-x="1256" 
d="M121 1434h927v-221l-388 -313c115 9 224 -19 311 -79c120 -82 193 -214 193 -361c0 -277 -247 -461 -525 -461c-274 0 -520 176 -526 462h239c7 -144 138 -237 287 -237c146 0 286 93 286 246c0 162 -153 253 -306 253c-66 0 -129 -18 -179 -49l-128 170l434 369h-625
v221z" />
    <glyph glyph-name="four" unicode="4" horiz-adv-x="1267" 
d="M748 299h-675v222l674 913h238v-916h219v-219h-219v-299h-237v299zM322 518h426v581z" />
    <glyph glyph-name="five" unicode="5" horiz-adv-x="1246" 
d="M107 461h240c9 -143 139 -237 288 -237c146 0 287 95 287 247c0 154 -143 253 -286 253h-477v710h898v-223h-657v-277h239c300 0 522 -183 522 -474c0 -277 -248 -460 -526 -460c-273 0 -522 175 -528 461z" />
    <glyph glyph-name="six" unicode="6" horiz-adv-x="1206" 
d="M593 219c158 0 286 118 286 269c0 149 -126 269 -286 269c-158 0 -284 -118 -284 -269c0 -149 125 -269 284 -269zM575 949c19 2 38 3 57 3c284 0 487 -214 487 -464c0 -273 -233 -488 -526 -488c-284 0 -522 209 -524 487c1 206 118 339 283 541l351 406h307z" />
    <glyph glyph-name="seven" unicode="7" horiz-adv-x="1230" 
d="M545 0h-266l596 1212h-800v222h1095v-128z" />
    <glyph glyph-name="eight" unicode="8" horiz-adv-x="1259" 
d="M629 1214c-130 0 -255 -65 -255 -181c0 -113 122 -180 255 -180c131 0 256 66 256 180s-122 181 -256 181zM629 659c-147 0 -301 -74 -301 -219c0 -143 151 -219 301 -219c147 0 303 74 303 219c0 143 -152 219 -303 219zM951 768c143 -84 220 -202 220 -341
c0 -268 -267 -427 -542 -427c-267 0 -541 154 -541 427c0 139 77 257 220 341c-80 55 -166 139 -166 283c0 241 241 383 487 383c240 0 488 -138 488 -383c0 -144 -86 -228 -166 -283z" />
    <glyph glyph-name="nine" unicode="9" horiz-adv-x="1206" 
d="M612 1214c-159 0 -286 -118 -286 -269c0 -149 126 -269 286 -269c158 0 284 119 284 269c0 149 -125 269 -284 269zM630 484c-20 -2 -39 -3 -57 -3c-283 0 -488 214 -488 465c0 272 234 488 527 488c282 0 523 -209 523 -487c0 -206 -117 -340 -282 -541l-351 -406h-307z
" />
    <glyph glyph-name="colon" unicode=":" horiz-adv-x="501" 
d="M121 730v257h259v-257h-259zM121 0v257h259v-257h-259z" />
    <glyph glyph-name="semicolon" unicode=";" horiz-adv-x="501" 
d="M64 -229l79 486h260l-149 -486h-190zM120 730v257h259v-257h-259z" />
    <glyph glyph-name="less" unicode="&#x3c;" horiz-adv-x="1045" 
d="M66 835l841 434v-252l-608 -302l608 -302v-252l-841 435v239z" />
    <glyph glyph-name="equal" unicode="=" horiz-adv-x="1140" 
d="M140 765v201h861v-201h-861zM140 436v200h861v-200h-861z" />
    <glyph glyph-name="greater" unicode="&#x3e;" horiz-adv-x="1045" 
d="M138 1269l841 -434v-239l-841 -435v252l607 302l-607 302v252z" />
    <glyph glyph-name="question" unicode="?" horiz-adv-x="1099" 
d="M667 248v-248h-250v248h250zM650 369h-214c-2 221 67 307 187 401c85 66 175 126 175 242c0 115 -100 201 -245 201c-174 0 -255 -117 -259 -268h-241c9 284 188 489 502 489c285 0 484 -177 484 -425c0 -160 -92 -250 -197 -331c-122 -93 -191 -136 -192 -309z" />
    <glyph glyph-name="at" unicode="@" horiz-adv-x="1821" 
d="M883 489c113 0 205 97 205 215c0 113 -87 212 -205 212c-113 0 -206 -97 -206 -214c0 -109 85 -213 206 -213zM1092 1113h205v-512c0 -109 40 -154 106 -154c122 0 159 133 159 261c0 356 -285 653 -651 653c-351 0 -651 -282 -651 -651c0 -191 85 -367 219 -487
c114 -102 264 -165 430 -165c135 0 258 40 371 118l102 -150c-144 -99 -308 -146 -471 -146c-202 0 -394 73 -542 200c-183 153 -294 378 -294 630c0 446 368 829 836 829c444 0 835 -361 835 -829c0 -293 -168 -443 -362 -443c-122 0 -234 69 -259 178
c-60 -80 -143 -153 -289 -153c-184 1 -370 141 -370 406c0 231 163 413 358 413c142 0 218 -76 268 -135v137z" />
    <glyph glyph-name="A" unicode="A" 
d="M1149 0l-104 266h-681l-103 -266h-251l577 1434h237l576 -1434h-251zM705 1147l-257 -662h513z" />
    <glyph glyph-name="B" unicode="B" horiz-adv-x="1343" 
d="M379 847h302c62 0 93 5 122 16c68 29 119 87 119 169s-51 140 -119 169c-28 12 -59 17 -122 17h-302v-371zM379 219h388c68 0 102 7 134 19c76 31 134 98 134 193c0 91 -56 160 -134 191c-31 13 -65 19 -136 19h-386v-422zM140 0v1434h566c104 0 171 -16 229 -46
c130 -64 217 -193 217 -359c0 -98 -42 -186 -113 -252c137 -64 232 -192 232 -355c0 -169 -88 -305 -222 -373c-61 -31 -130 -49 -240 -49h-669z" />
    <glyph glyph-name="C" unicode="C" horiz-adv-x="1551" 
d="M1491 942l-227 -75c-65 213 -237 346 -465 346c-283 0 -484 -214 -484 -496c0 -273 198 -495 484 -495c228 0 401 134 467 352l228 -71c-86 -300 -364 -503 -695 -503c-404 0 -729 308 -729 717c0 404 315 718 729 718c322 0 598 -183 692 -493z" />
    <glyph glyph-name="D" unicode="D" horiz-adv-x="1435" 
d="M586 222c117 0 178 13 233 35c186 70 306 247 306 459s-120 389 -306 460c-55 22 -116 35 -233 35h-207v-989h207zM586 1434c127 0 199 -12 269 -33c297 -88 510 -354 510 -685s-213 -596 -510 -685c-70 -20 -142 -31 -269 -31h-446v1434h446z" />
    <glyph glyph-name="E" unicode="E" horiz-adv-x="1209" 
d="M140 1434h979v-222h-739v-315h573v-220h-573v-455h739v-222h-979v1434z" />
    <glyph glyph-name="F" unicode="F" horiz-adv-x="1184" 
d="M140 1434h979v-222h-739v-315h573v-222h-573v-675h-240v1434z" />
    <glyph glyph-name="G" unicode="G" horiz-adv-x="1591" 
d="M1258 1279l-140 -183c-85 76 -194 119 -319 119c-285 0 -486 -216 -486 -498c0 -273 199 -495 486 -495c252 0 455 173 481 451h-504v223h725c14 -57 22 -117 22 -179c0 -404 -313 -717 -724 -717c-403 0 -729 303 -729 717c0 404 315 718 729 718
c175 0 335 -55 459 -156z" />
    <glyph glyph-name="H" unicode="H" horiz-adv-x="1476" 
d="M1096 1434h241v-1434h-241v673h-717v-673h-239v1434h239v-537h717v537z" />
    <glyph glyph-name="I" unicode="I" horiz-adv-x="520" 
d="M140 0v1434h240v-1434h-240z" />
    <glyph glyph-name="J" unicode="J" horiz-adv-x="789" 
d="M1 55l113 212c31 -19 66 -28 104 -28c89 0 158 57 181 130c9 29 13 67 13 122v943h240v-816c0 -89 -2 -153 -6 -209c-16 -221 -182 -409 -428 -409c-77 0 -150 18 -217 55z" />
    <glyph glyph-name="K" unicode="K" horiz-adv-x="1329" 
d="M863 1434h307l-474 -516c209 -306 415 -612 623 -918h-286l-498 742l-156 -170v-572h-240v1434h240v-540z" />
    <glyph glyph-name="L" unicode="L" horiz-adv-x="1178" 
d="M140 1435h240v-1211h740v-224h-980v1435z" />
    <glyph glyph-name="N" unicode="N" horiz-adv-x="1546" 
d="M379 0h-239v1434h129l897 -1000v1000h240v-1434h-129l-898 1001v-1001z" />
    <glyph glyph-name="P" unicode="P" horiz-adv-x="1315" 
d="M379 831h402c63 0 95 5 124 17c68 28 120 88 120 172c0 83 -50 144 -120 173c-29 12 -60 18 -125 18h-401v-380zM379 0h-239v1434h670c111 0 184 -19 246 -55c124 -67 205 -196 205 -358c0 -158 -81 -289 -206 -357c-62 -35 -134 -55 -245 -55h-431v-609z" />
    <glyph glyph-name="Q" unicode="Q" horiz-adv-x="1601" 
d="M1526 717c0 -196 -78 -373 -206 -502l175 -234l-193 -143l-175 238c-99 -49 -211 -76 -330 -76c-417 0 -728 312 -728 717c0 403 311 717 728 717c419 0 729 -314 729 -717zM1282 717c0 279 -197 494 -485 494c-287 0 -483 -215 -483 -494c0 -280 196 -494 483 -494
c288 0 485 214 485 494z" />
    <glyph glyph-name="R" unicode="R" horiz-adv-x="1376" 
d="M379 0h-239v1434h670c110 0 183 -20 245 -55c125 -66 206 -195 206 -358c0 -91 -26 -173 -73 -239c-47 -67 -110 -112 -183 -138c-16 -6 -32 -11 -50 -16l381 -628h-277l-362 610h-318v-610zM379 831h401c63 0 95 5 124 17c69 29 120 89 120 172s-50 144 -120 173
c-28 12 -60 17 -124 17h-401v-379z" />
    <glyph glyph-name="S" unicode="S" horiz-adv-x="1256" 
d="M66 257l149 170c124 -125 283 -203 445 -203c163 0 297 83 297 210c0 157 -204 186 -418 230c-236 49 -448 133 -448 370c0 223 179 401 491 401c177 0 365 -66 515 -196l-141 -169c-98 91 -240 146 -378 146c-141 0 -254 -63 -254 -163c0 -114 132 -144 347 -183
c226 -39 523 -115 523 -437c0 -247 -226 -433 -530 -433c-194 0 -411 76 -598 257z" />
    <glyph glyph-name="T" unicode="T" horiz-adv-x="1336" 
d="M62 1435h1212v-224h-487v-1211h-240v1211h-485v224z" />
    <glyph glyph-name="U" unicode="U" horiz-adv-x="1446" 
d="M128 1435h240v-805c0 -64 7 -110 20 -154c44 -144 161 -252 335 -252s292 108 336 252c13 44 20 90 20 154v805h239v-803c0 -83 -10 -149 -28 -209c-72 -249 -281 -423 -567 -423c-285 0 -495 174 -566 423c-19 60 -29 126 -29 209v803z" />
    <glyph glyph-name="V" unicode="V" horiz-adv-x="1434" 
d="M1163 1435h260l-584 -1435h-244l-584 1435h260l446 -1116z" />
    <glyph glyph-name="W" unicode="W" horiz-adv-x="1938" 
d="M33 1433h248l270 -1039l316 1039h208l312 -1038l268 1038h250l-383 -1433h-231l-321 1025l-326 -1025h-229z" />
    <glyph glyph-name="X" unicode="X" horiz-adv-x="1428" 
d="M23 0l551 761l-488 672h294l333 -478l332 478h295l-487 -672l553 -761h-297l-396 569l-395 -569h-295z" />
    <glyph glyph-name="Y" unicode="Y" horiz-adv-x="1297" 
d="M768 0h-239v566l-516 868h277l359 -625l358 625h277l-516 -868v-566z" />
    <glyph glyph-name="Z" unicode="Z" horiz-adv-x="1276" 
d="M109 1211v223h1058v-121l-735 -1089h756v-224h-1100v123l738 1088h-717z" />
    <glyph glyph-name="bracketleft" unicode="[" horiz-adv-x="727" 
d="M136 1707h519v-222h-289v-1549h289v-223h-519v1994z" />
    <glyph glyph-name="backslash" unicode="\" horiz-adv-x="1248" 
d="M41 1708h253l913 -1995h-253z" />
    <glyph glyph-name="bracketright" unicode="]" horiz-adv-x="727" 
d="M70 1707h519v-1994h-519v223h288v1549h-288v222z" />
    <glyph glyph-name="braceleft" unicode="{" horiz-adv-x="798" 
d="M455 423v-291c0 -134 141 -186 256 -187v-226c-260 0 -490 148 -490 413v304c0 112 -59 167 -169 169v219c110 2 169 57 169 169v305c0 263 230 412 490 412v-226c-115 -2 -256 -53 -256 -186v-292c0 -88 -29 -240 -147 -292c118 -52 147 -203 147 -291z" />
    <glyph glyph-name="bar" unicode="|" horiz-adv-x="508" 
d="M139 -287v1995h231v-1995h-231z" />
    <glyph glyph-name="braceright" unicode="}" horiz-adv-x="796" 
d="M341 423c0 89 30 240 147 292c-117 52 -147 203 -147 291v292c0 133 -141 185 -256 186v226c260 0 490 -148 490 -412v-304c0 -113 59 -167 169 -170v-219c-110 -2 -169 -56 -169 -169v-304c0 -264 -230 -413 -490 -413v227c115 1 256 53 256 186v291z" />
    <glyph glyph-name="asciitilde" unicode="~" horiz-adv-x="1138" 
d="M284 549h-176c7 199 99 311 260 311c164 0 277 -107 374 -107c71 0 103 55 112 115h176c-7 -197 -100 -310 -260 -310c-164 0 -277 107 -374 107c-71 0 -104 -54 -112 -116z" />
    <glyph glyph-name="guillemotleft" unicode="&#xab;" horiz-adv-x="1126" 
d="M342 1104h248l-273 -407l273 -407h-248l-268 407zM767 1104h249l-273 -407l273 -407h-249l-268 407z" />
    <glyph glyph-name="guillemotright" unicode="&#xbb;" horiz-adv-x="1126" 
d="M109 1104h249l268 -407l-268 -407h-249l274 407zM535 1104h249l268 -407l-268 -407h-249c91 136 183 271 273 407c-90 136 -182 271 -273 407z" />
    <glyph glyph-name="multiply" unicode="&#xd7;" horiz-adv-x="936" 
d="M468 853l224 226l153 -152l-226 -224l226 -225l-153 -152l-224 226l-224 -226l-152 153l225 224l-225 224l152 152z" />
    <glyph glyph-name="endash" unicode="&#x2013;" horiz-adv-x="1272" 
d="M135 594v217h1002v-217h-1002z" />
    <glyph glyph-name="quoteleft" unicode="&#x2018;" horiz-adv-x="501" 
d="M220 1434h187l-76 -473h-255z" />
    <glyph glyph-name="quoteright" unicode="&#x2019;" horiz-adv-x="501" 
d="M154 1434h255l-143 -473h-188z" />
    <glyph glyph-name="quotesinglbase" unicode="&#x201a;" horiz-adv-x="501" 
d="M149 256h255l-144 -472h-187c26 158 51 315 76 472z" />
    <glyph glyph-name="quotedblleft" unicode="&#x201c;" horiz-adv-x="829" 
d="M546 1434h187l-77 -473h-253zM218 1434h186l-76 -473h-254z" />
    <glyph glyph-name="quotedblright" unicode="&#x201d;" horiz-adv-x="829" 
d="M155 1434h253l-143 -473h-186zM484 1434h253l-143 -473h-187z" />
    <glyph glyph-name="quotedblbase" unicode="&#x201e;" horiz-adv-x="829" 
d="M150 257h254l-144 -473h-186zM479 257h253l-143 -473h-187z" />
    <glyph glyph-name="guilsinglleft" unicode="&#x2039;" horiz-adv-x="665" 
d="M568 1103l-273 -407l273 -407h-249l-268 407l268 407h249z" />
    <glyph glyph-name="guilsinglright" unicode="&#x203a;" horiz-adv-x="665" 
d="M96 1105h249l268 -407l-268 -407h-249l273 407z" />
    <glyph glyph-name="uni0444" unicode="&#x444;" horiz-adv-x="1732" 
d="M984 1063v-690c253 15 450 144 450 345c0 199 -193 329 -450 345zM745 373v690c-251 -15 -448 -145 -448 -345c0 -199 192 -329 448 -345zM985 1436v-153c368 -17 690 -222 690 -565c0 -345 -322 -541 -690 -565v-153h-240v154c-355 10 -688 224 -688 564
c0 344 324 542 688 565v153h240z" />
    <glyph glyph-name="O" unicode="O" horiz-adv-x="1597" 
d="M1527 717c0 -404 -311 -717 -729 -717s-728 313 -728 717s310 717 728 717s729 -313 729 -717zM1282 717c0 279 -196 495 -484 495c-287 0 -484 -216 -484 -495s197 -493 484 -493c288 0 484 214 484 493z" />
    <glyph glyph-name="emdash" unicode="&#x2014;" horiz-adv-x="1940" 
d="M186 593v219h1569v-219h-1569z" />
    <glyph glyph-name="uni00AD" unicode="&#xad;" horiz-adv-x="1029" 
d="M134 592v221h760v-221h-760z" />
    <glyph glyph-name="M" unicode="M" horiz-adv-x="1779" 
d="M140 1434h129l621 -747l620 747h130v-1434h-240v979l-510 -623l-511 623v-979h-239v1434z" />
    <glyph glyph-name="ellipsis" unicode="&#x2026;" horiz-adv-x="1576" 
d="M136 0v257h259v-257h-259zM1180 0v257h259v-257h-259zM658 0v257h259v-257h-259z" />
    <glyph glyph-name="questiondown" unicode="&#xbf;" horiz-adv-x="1099" 
d="M423 1186v248h250v-248h-250zM440 1065h214c2 -221 -67 -307 -187 -401c-85 -66 -175 -126 -175 -242c0 -115 100 -201 245 -201c174 0 255 117 259 268h241c-9 -284 -188 -489 -502 -489c-285 0 -484 177 -484 425c0 160 92 250 197 331c122 93 191 136 192 309z" />
    <glyph glyph-name="exclamdown" unicode="&#xa1;" horiz-adv-x="520" 
d="M376 1189h-250v247h250v-247zM355 1067l19 -1065h-246l19 1065h208z" />
    <glyph glyph-name="underscore" unicode="_" horiz-adv-x="1167" 
d="M0 -324v202h1167v-202h-1167z" />
    <glyph glyph-name="perthousand" unicode="&#x2030;" horiz-adv-x="2619" 
d="M1313 193c113 0 181 107 181 217c0 107 -65 218 -181 218c-114 0 -181 -107 -181 -218c0 -107 65 -217 181 -217zM923 407c0 222 161 414 390 414c224 0 390 -180 390 -411c0 -220 -158 -411 -390 -411c-224 0 -390 181 -390 408zM470 1243c-113 0 -181 -107 -181 -218
c0 -107 65 -217 181 -217c114 0 181 106 181 217c0 107 -65 218 -181 218zM860 1029c0 -222 -161 -415 -390 -415c-223 0 -390 180 -390 411c0 221 157 411 390 411c225 0 390 -180 390 -407zM1567 1435l-403 -543h-253l370 543h286zM216 0l404 542h253l-369 -542h-288z
M2162 192c114 0 180 109 180 217c0 110 -65 218 -180 218c-116 0 -181 -108 -181 -218c0 -108 67 -217 181 -217zM1772 407c0 229 161 413 390 413c228 0 389 -184 389 -413c0 -223 -161 -409 -389 -409s-390 186 -390 409z" />
    <glyph glyph-name="Oslash" unicode="&#xd8;" horiz-adv-x="1597" 
d="M435 -68h-241l138 226c-162 130 -262 330 -262 559c0 404 310 717 728 717c104 0 201 -19 289 -55l76 124h241l-139 -228c162 -130 262 -330 262 -558c0 -404 -311 -717 -729 -717c-104 0 -201 19 -288 54zM314 717c0 -144 52 -270 142 -359l514 825
c-53 19 -110 29 -172 29c-287 0 -484 -216 -484 -495zM1282 717c0 143 -52 269 -141 358l-512 -824c52 -17 108 -27 169 -27c288 0 484 214 484 493z" />
    <glyph glyph-name="cedilla" unicode="&#xb8;" horiz-adv-x="644" 
d="M39 -363l39 115c138 -46 330 -52 327 24c-2 49 -76 75 -184 54l-46 56l76 165h121l-59 -119c199 11 269 -88 263 -171c-13 -135 -228 -241 -537 -124z" />
    <glyph glyph-name="acute" unicode="&#xb4;" horiz-adv-x="635" 
d="M190 1534l144 301h261l-221 -301h-184z" />
    <glyph glyph-name="tilde" unicode="&#x2dc;" horiz-adv-x="1069" 
d="M767 1829h156c-6 -174 -84 -277 -226 -277c-139 0 -235 97 -312 97c-62 0 -90 -51 -96 -107h-156c6 176 85 278 227 278c138 0 235 -97 311 -97c63 0 91 51 96 106z" />
    <glyph glyph-name="dieresis" unicode="&#xa8;" horiz-adv-x="1233" 
d="M337 1778h230v-221h-230v221zM718 1778h229v-221h-229v221z" />
    <glyph glyph-name="germandbls" unicode="&#xdf;" horiz-adv-x="1440" 
d="M366 0h-239v802c0 84 11 149 29 210c71 248 279 422 565 422c234 0 416 -116 511 -295l-350 -287c332 32 491 -180 491 -397c0 -239 -199 -456 -533 -456c-153 0 -302 55 -413 157l149 182c87 -76 165 -115 271 -115c173 0 286 104 286 241c0 113 -81 211 -233 211
c-71 0 -154 -21 -251 -67l-114 183l412 350c-58 44 -133 70 -219 70c-180 0 -298 -109 -342 -252c-13 -44 -20 -91 -20 -155v-804z" />
    <glyph glyph-name="AE" unicode="&#xc6;" horiz-adv-x="1897" 
d="M1807 1212h-734v-315h568v-220h-568v-455h734v-222h-975v266h-442l-123 -266h-260l675 1435h1125v-223zM832 1222l-341 -737h341v737z" />
    <glyph glyph-name="OE" unicode="&#x152;" horiz-adv-x="1861" 
d="M1772 1213h-734v-316h568v-220h-568v-454h734v-223h-972c-431 0 -730 323 -730 718c0 408 324 729 754 716h948v-221zM314 718c0 -277 197 -497 485 -497v994c-295 -1 -485 -222 -485 -497z" />
    <glyph glyph-name="registered" unicode="&#xae;" horiz-adv-x="954" 
d="M775 1211c0 167 -127 294 -297 299c-165 0 -299 -130 -299 -299c0 -164 129 -299 299 -299c162 0 299 130 297 299zM872 1211c0 -217 -171 -396 -394 -396c-217 0 -395 172 -395 396c0 216 172 395 395 395c214 0 394 -171 394 -395zM407 1320v-64h104c24 0 43 10 43 32
s-18 32 -43 32h-104zM301 1418h224c80 0 134 -51 134 -130c0 -53 -24 -96 -80 -116l89 -165h-121l-79 154h-61v-154h-106v411z" />
    <glyph glyph-name="copyright" unicode="&#xa9;" horiz-adv-x="1842" 
d="M1576 720c0 366 -282 644 -656 654c-359 0 -656 -285 -656 -654c0 -357 286 -654 656 -654c356 0 658 285 656 654zM1766 720c0 -463 -377 -843 -846 -843c-465 0 -845 377 -845 843c0 463 376 843 845 843c463 0 848 -376 846 -843zM1420 873l-204 -65
c-34 128 -136 218 -282 218c-183 0 -301 -121 -301 -306c0 -178 113 -307 301 -307c141 0 245 85 283 220l204 -63c-61 -214 -252 -351 -487 -351c-290 0 -523 196 -523 501c0 297 222 501 523 501c223 0 418 -127 486 -348z" />
    <glyph glyph-name="cent" unicode="&#xa2;" horiz-adv-x="1120" 
d="M668 -196h-201v207c-232 44 -413 237 -413 495c0 255 174 453 413 496v207h201v-206c184 -31 340 -154 395 -346l-214 -65c-32 128 -138 216 -278 216c-174 0 -288 -131 -288 -302c0 -166 115 -302 288 -302c140 0 244 83 278 217l214 -66c-52 -184 -205 -312 -395 -345
v-206z" />
    <glyph glyph-name="trademark" unicode="&#x2122;" horiz-adv-x="1369" 
d="M554 1434v-132h-172v-448h-145v448h-172v132h489zM627 1434h71l249 -280c84 93 166 187 250 280h70v-580h-143v312l-177 -191c-59 63 -117 127 -176 191v-312h-144v580z" />
    <glyph glyph-name="yen" unicode="&#xa5;" horiz-adv-x="1350" 
d="M1180 272h-386v-272h-240v272h-386v183h386v109h-386v186h279l-408 684h277l358 -625l360 625h276l-409 -684h279v-186h-386v-109h386v-183z" />
    <glyph glyph-name="asciicircum" unicode="^" horiz-adv-x="828" 
d="M12 744l308 690h187l309 -690h-217l-185 450l-185 -450h-217z" />
    <glyph glyph-name="Euro" unicode="&#x20ac;" horiz-adv-x="1657" 
d="M1064 481h-586c74 -154 231 -259 426 -259c230 0 402 133 468 351l228 -70c-87 -301 -365 -503 -696 -503c-321 0 -592 195 -689 481h-183v181h147c-1 18 -2 36 -2 54c0 20 1 41 2 59h-147v185h186c97 280 362 475 686 475c323 0 599 -184 693 -494
c-75 -26 -151 -50 -227 -75c-64 213 -237 346 -466 346c-192 0 -348 -100 -423 -252h583v-185h-640c-2 -18 -4 -39 -4 -59c0 -18 2 -36 4 -54h640v-181z" />
    <glyph glyph-name="sterling" unicode="&#xa3;" horiz-adv-x="1159" 
d="M83 624v209h157c-12 56 -22 109 -22 170c0 280 168 437 438 437c126 0 274 -35 436 -105l-86 -200c-131 62 -233 85 -313 85c-195 0 -237 -125 -237 -233c0 -47 10 -98 22 -154h448v-209h-412c4 -43 6 -86 4 -128c-9 -102 -46 -193 -130 -272h683v-224h-992v222
c139 84 190 183 203 286c4 37 2 78 -2 116h-197z" />
    <glyph glyph-name="dagger" unicode="&#x2020;" horiz-adv-x="1115" 
d="M60 1100v219h382v389h230v-389h383v-219h-383v-1387h-230v1387h-382z" />
    <glyph glyph-name="Eth" unicode="&#xd0;" horiz-adv-x="1482" 
d="M634 1434c127 0 199 -12 269 -33c297 -88 510 -354 510 -685s-213 -596 -510 -685c-70 -20 -142 -31 -269 -31h-446v675h-157v221h157v538h446zM634 222c117 0 178 13 233 35c186 70 306 247 306 459s-120 389 -306 460c-55 22 -116 35 -233 35h-207v-315h438v-221h-438
v-453h207z" />
    <glyph glyph-name="eth" unicode="&#xf0;" horiz-adv-x="1482" 
d="M634 1434c127 0 199 -12 269 -33c297 -88 510 -354 510 -685s-213 -596 -510 -685c-70 -20 -142 -31 -269 -31h-446v675h-158v221h158v538h446zM634 222c117 0 178 13 233 35c186 70 306 247 306 459s-120 389 -306 460c-55 22 -116 35 -233 35h-207v-315h437v-221h-437
v-453h207z" />
    <glyph glyph-name="divide" unicode="&#xf7;" horiz-adv-x="956" 
d="M52 591v219h852v-219h-852zM605 358c0 -66 -56 -127 -127 -127c-67 0 -128 56 -128 127c0 67 56 128 128 128c66 0 127 -57 127 -128zM478 1168c66 0 127 -56 127 -127c0 -66 -56 -127 -127 -127c-67 0 -128 56 -128 127c0 67 56 127 128 127z" />
    <glyph glyph-name="currency" unicode="&#xa4;" horiz-adv-x="1238" 
d="M389 713c0 -132 99 -231 230 -231c130 0 230 99 230 231s-100 232 -230 232c-131 0 -230 -100 -230 -232zM1062 713c0 -84 -24 -162 -68 -225l175 -175l-151 -150l-177 179c-64 -39 -140 -61 -222 -61s-158 22 -222 61l-178 -179l-150 150l175 175
c-44 63 -69 141 -69 225s25 161 69 225l-175 175l150 150l178 -179c64 40 140 62 222 62s158 -22 222 -62l177 179l151 -150l-175 -175c44 -64 68 -141 68 -225z" />
    <glyph glyph-name="mu" unicode="&#xb5;" horiz-adv-x="1218" 
d="M871 1012h222v-1012h-222v139c-70 -84 -175 -139 -305 -139c-86 0 -160 42 -218 97v-707h-223v1622h223v-516c0 -159 114 -286 262 -286s261 127 261 286v516z" />
    <glyph glyph-name="paragraph" unicode="&#xb6;" horiz-adv-x="1247" 
d="M542 -252v736c-266 1 -474 213 -474 476c0 261 208 473 474 474h565v-1686h-230v1461h-107v-1461h-228z" />
    <glyph glyph-name="section" unicode="&#xa7;" horiz-adv-x="1298" 
d="M973 686c0 124 -134 162 -301 195c-85 16 -180 33 -261 66c-46 -30 -76 -77 -76 -136c0 -123 131 -155 300 -190c84 -18 181 -37 264 -73c44 31 74 78 74 138zM1202 701c0 -99 -50 -183 -123 -248c61 -55 100 -132 100 -244c0 -233 -216 -406 -511 -406
c-185 0 -392 74 -573 240c50 54 99 108 148 163c125 -129 282 -186 421 -186c170 0 282 81 282 188c0 294 -840 85 -840 587c0 97 51 180 123 246c-61 53 -100 130 -100 240c0 227 214 396 501 396c178 0 370 -66 536 -215l-147 -162c-113 113 -254 160 -382 160
c-164 0 -275 -77 -275 -177c0 -284 840 -69 840 -582z" />
    <glyph glyph-name="bullet" unicode="&#x2022;" horiz-adv-x="692" 
d="M540 704c0 -108 -82 -193 -193 -193s-194 84 -194 193c0 114 85 193 194 193c107 0 193 -79 193 -193z" />
    <glyph glyph-name="ordmasculine" unicode="&#xba;" horiz-adv-x="874" 
d="M437 1257c-105 0 -180 -84 -180 -193c0 -110 75 -194 180 -194s181 84 181 194s-76 193 -181 193zM58 1064c0 216 162 378 379 378s380 -162 380 -378s-163 -378 -380 -378s-379 162 -379 378z" />
    <glyph glyph-name="ordfeminine" unicode="&#xaa;" horiz-adv-x="894" 
d="M440 1259c-109 0 -180 -89 -180 -196c0 -106 71 -195 180 -195c110 0 182 89 182 195c0 105 -72 196 -182 196zM621 692v102c-47 -67 -120 -109 -219 -109c-214 0 -344 190 -344 378s130 379 344 379c99 0 172 -42 219 -109v100h197v-741h-197z" />
    <glyph glyph-name="degree" unicode="&#xb0;" horiz-adv-x="794" 
d="M398 956c90 0 151 69 151 156c0 92 -66 157 -151 157c-90 0 -153 -68 -153 -157c0 -88 63 -156 153 -156zM398 1434c190 0 323 -143 323 -322c0 -189 -145 -321 -323 -321c-193 0 -324 144 -324 321c0 186 142 322 324 322z" />
    <glyph glyph-name="grave" unicode="`" horiz-adv-x="619" 
d="M17 1835h261l144 -301h-184z" />
    <glyph glyph-name="circumflex" unicode="&#x2c6;" horiz-adv-x="1137" 
d="M468 1836h193l269 -295h-225l-140 151l-141 -151h-224z" />
    <glyph glyph-name="uni040B" unicode="&#x40b;" horiz-adv-x="1716" 
d="M1541 728c60 -101 70 -209 70 -363v-365h-239v436c0 189 -96 268 -285 268c-108 0 -215 -24 -313 -67v-637h-240v1210h-477v224h1204v-224h-487v-344c110 38 223 60 343 60c192 0 341 -62 424 -198z" />
    <glyph glyph-name="uni040A" unicode="&#x40a;" horiz-adv-x="2153" 
d="M1032 0v652h-653v-652h-239v1434h239v-559h653v559h239v-561h358c114 0 189 -20 252 -57c131 -72 217 -211 217 -380c0 -172 -86 -308 -216 -380c-64 -36 -139 -56 -253 -56h-597zM1271 222h330c67 0 100 6 130 19c76 33 130 102 130 195c0 96 -55 164 -130 196
c-30 12 -63 18 -129 18h-331v-428z" />
    <glyph glyph-name="middot" unicode="&#xb7;" horiz-adv-x="501" 
d="M121 573v257h259v-257h-259z" />
    <glyph glyph-name="Aacute" unicode="&#xc1;" 
d="M1149 0l-104 266h-681l-103 -266h-251l577 1434h237l576 -1434h-251zM705 1147l-257 -662h513zM597 1534l144 301h261l-221 -301h-184z" />
    <glyph glyph-name="Acircumflex" unicode="&#xc2;" 
d="M1149 0l-104 266h-681l-103 -266h-251l577 1434h237l576 -1434h-251zM705 1147l-257 -662h513zM609 1836h193l269 -295h-225l-140 151l-141 -151h-224z" />
    <glyph glyph-name="Agrave" unicode="&#xc0;" 
d="M1149 0l-104 266h-681l-103 -266h-251l577 1434h237l576 -1434h-251zM705 1147l-257 -662h513zM412 1834h261l144 -301h-184z" />
    <glyph glyph-name="Adieresis" unicode="&#xc4;" 
d="M1149 0l-104 266h-681l-103 -266h-251l577 1434h237l576 -1434h-251zM705 1147l-257 -662h513zM401 1778h230v-221h-230v221zM782 1778h229v-221h-229v221z" />
    <glyph glyph-name="Aring" unicode="&#xc5;" 
d="M705 1800c140 1 258 -112 258 -253c0 -84 -41 -157 -103 -203l540 -1344h-251l-103 266h-683l-102 -266h-251l540 1344c-62 46 -102 119 -102 203c0 141 118 254 257 253zM705 1147l-257 -662h513zM705 1656c-62 0 -110 -48 -110 -112s48 -112 110 -112
c64 0 110 48 110 112s-46 112 -110 112z" />
    <glyph glyph-name="Atilde" unicode="&#xc3;" 
d="M1149 0l-104 266h-681l-103 -266h-251l577 1434h237l576 -1434h-251zM705 1147l-257 -662h513zM950 1829h156c-6 -174 -84 -277 -226 -277c-139 0 -235 97 -312 97c-62 0 -90 -51 -96 -107h-156c6 176 85 278 227 278c138 0 235 -97 311 -97c63 0 91 51 96 106z" />
    <glyph glyph-name="Ccedilla" unicode="&#xc7;" horiz-adv-x="1551" 
d="M542 -363l39 115c138 -46 330 -52 327 24c-2 49 -76 75 -184 54l-46 56l54 117c-373 32 -662 328 -662 714c0 404 315 718 729 718c322 0 598 -183 692 -493l-227 -75c-65 213 -237 346 -465 346c-283 0 -484 -214 -484 -496c0 -273 198 -495 484 -495
c228 0 401 134 467 352l228 -71c-82 -284 -336 -482 -644 -502l-34 -69c199 11 269 -88 263 -171c-13 -135 -228 -241 -537 -124z" />
    <glyph glyph-name="Eacute" unicode="&#xc9;" horiz-adv-x="1209" 
d="M140 1434h979v-222h-739v-315h573v-220h-573v-455h739v-222h-979v1434zM511 1536l144 301h261l-221 -301h-184z" />
    <glyph glyph-name="Ecircumflex" unicode="&#xca;" horiz-adv-x="1209" 
d="M140 1434h979v-222h-739v-315h573v-220h-573v-455h739v-222h-979v1434zM523 1838h193l269 -295h-225l-140 151l-141 -151h-224z" />
    <glyph glyph-name="Edieresis" unicode="&#xcb;" horiz-adv-x="1209" 
d="M140 1434h979v-222h-739v-315h573v-220h-573v-455h739v-222h-979v1434zM315 1780h230v-221h-230v221zM696 1780h229v-221h-229v221z" />
    <glyph glyph-name="Egrave" unicode="&#xc8;" horiz-adv-x="1209" 
d="M140 1434h979v-222h-739v-315h573v-220h-573v-455h739v-222h-979v1434zM326 1836h261l144 -301h-184z" />
    <glyph glyph-name="Iacute" unicode="&#xcd;" horiz-adv-x="520" 
d="M140 0v1434h240v-1434h-240zM149 1534l144 301h261l-221 -301h-184z" />
    <glyph glyph-name="Icircumflex" unicode="&#xce;" horiz-adv-x="520" 
d="M140 0v1434h240v-1434h-240zM161 1836h193l269 -295h-225l-140 151l-141 -151h-224z" />
    <glyph glyph-name="Idieresis" unicode="&#xcf;" horiz-adv-x="520" 
d="M140 0v1434h240v-1434h-240zM-47 1778h230v-221h-230v221zM334 1778h229v-221h-229v221z" />
    <glyph glyph-name="Igrave" unicode="&#xcc;" horiz-adv-x="520" 
d="M140 0v1434h240v-1434h-240zM-36 1834h261l144 -301h-184z" />
    <glyph glyph-name="Ntilde" unicode="&#xd1;" horiz-adv-x="1546" 
d="M379 0h-239v1434h129l897 -1000v1000h240v-1434h-129l-898 1001v-1001zM1013 1830h156c-6 -174 -84 -277 -226 -277c-139 0 -235 97 -312 97c-62 0 -90 -51 -96 -107h-156c6 176 85 278 227 278c138 0 235 -97 311 -97c63 0 91 51 96 106z" />
    <glyph glyph-name="Oacute" unicode="&#xd3;" horiz-adv-x="1597" 
d="M1527 717c0 -404 -311 -717 -729 -717s-728 313 -728 717s310 717 728 717s729 -313 729 -717zM1282 717c0 279 -196 495 -484 495c-287 0 -484 -216 -484 -495s197 -493 484 -493c288 0 484 214 484 493zM689 1536l144 301h261l-221 -301h-184z" />
    <glyph glyph-name="Ocircumflex" unicode="&#xd4;" horiz-adv-x="1597" 
d="M1527 717c0 -404 -311 -717 -729 -717s-728 313 -728 717s310 717 728 717s729 -313 729 -717zM1282 717c0 279 -196 495 -484 495c-287 0 -484 -216 -484 -495s197 -493 484 -493c288 0 484 214 484 493zM701 1838h193l269 -295h-225l-140 151l-141 -151h-224z" />
    <glyph glyph-name="Odieresis" unicode="&#xd6;" horiz-adv-x="1597" 
d="M1527 717c0 -404 -311 -717 -729 -717s-728 313 -728 717s310 717 728 717s729 -313 729 -717zM1282 717c0 279 -196 495 -484 495c-287 0 -484 -216 -484 -495s197 -493 484 -493c288 0 484 214 484 493zM493 1780h230v-221h-230v221zM874 1780h229v-221h-229v221z" />
    <glyph glyph-name="Ograve" unicode="&#xd2;" horiz-adv-x="1597" 
d="M1527 717c0 -404 -311 -717 -729 -717s-728 313 -728 717s310 717 728 717s729 -313 729 -717zM1282 717c0 279 -196 495 -484 495c-287 0 -484 -216 -484 -495s197 -493 484 -493c288 0 484 214 484 493zM504 1836h261l144 -301h-184z" />
    <glyph glyph-name="Otilde" unicode="&#xd5;" horiz-adv-x="1597" 
d="M1527 717c0 -404 -311 -717 -729 -717s-728 313 -728 717s310 717 728 717s729 -313 729 -717zM1282 717c0 279 -196 495 -484 495c-287 0 -484 -216 -484 -495s197 -493 484 -493c288 0 484 214 484 493zM1042 1831h156c-6 -174 -84 -277 -226 -277
c-139 0 -235 97 -312 97c-62 0 -90 -51 -96 -107h-156c6 176 85 278 227 278c138 0 235 -97 311 -97c63 0 91 51 96 106z" />
    <glyph glyph-name="Scaron" unicode="&#x160;" horiz-adv-x="1256" 
d="M66 257l149 170c124 -125 283 -203 445 -203c163 0 297 83 297 210c0 157 -204 186 -418 230c-236 49 -448 133 -448 370c0 223 179 401 491 401c177 0 365 -66 515 -196l-141 -169c-98 91 -240 146 -378 146c-141 0 -254 -63 -254 -163c0 -114 132 -144 347 -183
c226 -39 523 -115 523 -437c0 -247 -226 -433 -530 -433c-194 0 -411 76 -598 257zM701 1540h-193l-268 295h224l141 -151l140 151h225z" />
    <glyph glyph-name="Uacute" unicode="&#xda;" horiz-adv-x="1446" 
d="M128 1435h240v-805c0 -64 7 -110 20 -154c44 -144 161 -252 335 -252s292 108 336 252c13 44 20 90 20 154v805h239v-803c0 -83 -10 -149 -28 -209c-72 -249 -281 -423 -567 -423c-285 0 -495 174 -566 423c-19 60 -29 126 -29 209v803zM615 1534l144 301h261l-221 -301
h-184z" />
    <glyph glyph-name="Ucircumflex" unicode="&#xdb;" horiz-adv-x="1446" 
d="M128 1435h240v-805c0 -64 7 -110 20 -154c44 -144 161 -252 335 -252s292 108 336 252c13 44 20 90 20 154v805h239v-803c0 -83 -10 -149 -28 -209c-72 -249 -281 -423 -567 -423c-285 0 -495 174 -566 423c-19 60 -29 126 -29 209v803zM627 1836h193l269 -295h-225
l-140 151l-141 -151h-224z" />
    <glyph glyph-name="Udieresis" unicode="&#xdc;" horiz-adv-x="1446" 
d="M128 1435h240v-805c0 -64 7 -110 20 -154c44 -144 161 -252 335 -252s292 108 336 252c13 44 20 90 20 154v805h239v-803c0 -83 -10 -149 -28 -209c-72 -249 -281 -423 -567 -423c-285 0 -495 174 -566 423c-19 60 -29 126 -29 209v803zM419 1778h230v-221h-230v221z
M800 1778h229v-221h-229v221z" />
    <glyph glyph-name="Ugrave" unicode="&#xd9;" horiz-adv-x="1446" 
d="M128 1435h240v-805c0 -64 7 -110 20 -154c44 -144 161 -252 335 -252s292 108 336 252c13 44 20 90 20 154v805h239v-803c0 -83 -10 -149 -28 -209c-72 -249 -281 -423 -567 -423c-285 0 -495 174 -566 423c-19 60 -29 126 -29 209v803zM430 1834h261l144 -301h-184z" />
    <glyph glyph-name="Yacute" unicode="&#xdd;" horiz-adv-x="1297" 
d="M768 0h-239v566l-516 868h277l359 -625l358 625h277l-516 -868v-566zM540 1534l144 301h261l-221 -301h-184z" />
    <glyph glyph-name="Ydieresis" unicode="&#x178;" horiz-adv-x="1297" 
d="M768 0h-239v566l-516 868h277l359 -625l358 625h277l-516 -868v-566zM344 1778h230v-221h-230v221zM725 1778h229v-221h-229v221z" />
    <glyph glyph-name="Zcaron" unicode="&#x17d;" horiz-adv-x="1276" 
d="M109 1211v223h1058v-121l-735 -1089h756v-224h-1100v123l738 1088h-717zM735 1540h-193l-268 295h224l141 -151l140 151h225z" />
    <glyph glyph-name="a" unicode="a" 
d="M1149 0l-104 266h-681l-103 -266h-251l577 1434h237l576 -1434h-251zM705 1147l-257 -662h513z" />
    <glyph glyph-name="aacute" unicode="&#xe1;" 
d="M1149 0l-104 266h-681l-103 -266h-251l577 1434h237l576 -1434h-251zM705 1147l-257 -662h513zM597 1534l144 301h261l-221 -301h-184z" />
    <glyph glyph-name="acircumflex" unicode="&#xe2;" 
d="M1149 0l-104 266h-681l-103 -266h-251l577 1434h237l576 -1434h-251zM705 1147l-257 -662h513zM609 1836h193l269 -295h-225l-140 151l-141 -151h-224z" />
    <glyph glyph-name="agrave" unicode="&#xe0;" 
d="M1149 0l-104 266h-681l-103 -266h-251l577 1434h237l576 -1434h-251zM705 1147l-257 -662h513zM412 1834h261l144 -301h-184z" />
    <glyph glyph-name="adieresis" unicode="&#xe4;" 
d="M1149 0l-104 266h-681l-103 -266h-251l577 1434h237l576 -1434h-251zM705 1147l-257 -662h513zM401 1778h230v-221h-230v221zM782 1778h229v-221h-229v221z" />
    <glyph glyph-name="aring" unicode="&#xe5;" 
d="M705 1800c140 1 258 -112 258 -253c0 -84 -41 -157 -103 -203l540 -1344h-251l-103 266h-683l-102 -266h-251l540 1344c-62 46 -102 119 -102 203c0 141 118 254 257 253zM705 1147l-257 -662h513zM705 1656c-62 0 -110 -48 -110 -112s48 -112 110 -112
c64 0 110 48 110 112s-46 112 -110 112z" />
    <glyph glyph-name="atilde" unicode="&#xe3;" 
d="M1149 0l-104 266h-681l-103 -266h-251l577 1434h237l576 -1434h-251zM705 1147l-257 -662h513zM950 1829h156c-6 -174 -84 -277 -226 -277c-139 0 -235 97 -312 97c-62 0 -90 -51 -96 -107h-156c6 176 85 278 227 278c138 0 235 -97 311 -97c63 0 91 51 96 106z" />
    <glyph glyph-name="ae" unicode="&#xe6;" horiz-adv-x="1897" 
d="M1807 1212h-734v-315h568v-220h-568v-455h734v-222h-975v266h-442l-123 -266h-260l675 1435h1125v-223zM832 1222l-341 -737h341v737z" />
    <glyph glyph-name="b" unicode="b" horiz-adv-x="1343" 
d="M379 847h302c62 0 93 5 122 16c68 29 119 87 119 169s-51 140 -119 169c-28 12 -59 17 -122 17h-302v-371zM379 219h388c68 0 102 7 134 19c76 31 134 98 134 193c0 91 -56 160 -134 191c-31 13 -65 19 -136 19h-386v-422zM140 0v1434h566c104 0 171 -16 229 -46
c130 -64 217 -193 217 -359c0 -98 -42 -186 -113 -252c137 -64 232 -192 232 -355c0 -169 -88 -305 -222 -373c-61 -31 -130 -49 -240 -49h-669z" />
    <glyph glyph-name="c" unicode="c" horiz-adv-x="1551" 
d="M1491 942l-227 -75c-65 213 -237 346 -465 346c-283 0 -484 -214 -484 -496c0 -273 198 -495 484 -495c228 0 401 134 467 352l228 -71c-86 -300 -364 -503 -695 -503c-404 0 -729 308 -729 717c0 404 315 718 729 718c322 0 598 -183 692 -493z" />
    <glyph glyph-name="ccedilla" unicode="&#xe7;" horiz-adv-x="1551" 
d="M542 -363l39 115c138 -46 330 -52 327 24c-2 49 -76 75 -184 54l-46 56l54 117c-373 32 -662 328 -662 714c0 404 315 718 729 718c322 0 598 -183 692 -493l-227 -75c-65 213 -237 346 -465 346c-283 0 -484 -214 -484 -496c0 -273 198 -495 484 -495
c228 0 401 134 467 352l228 -71c-82 -284 -336 -482 -644 -502l-34 -69c199 11 269 -88 263 -171c-13 -135 -228 -241 -537 -124z" />
    <glyph glyph-name="d" unicode="d" horiz-adv-x="1435" 
d="M586 222c117 0 178 13 233 35c186 70 306 247 306 459s-120 389 -306 460c-55 22 -116 35 -233 35h-207v-989h207zM586 1434c127 0 199 -12 269 -33c297 -88 510 -354 510 -685s-213 -596 -510 -685c-70 -20 -142 -31 -269 -31h-446v1434h446z" />
    <glyph glyph-name="eacute" unicode="&#xe9;" horiz-adv-x="1209" 
d="M140 1434h979v-222h-739v-315h573v-220h-573v-455h739v-222h-979v1434zM511 1536l144 301h261l-221 -301h-184z" />
    <glyph glyph-name="e" unicode="e" horiz-adv-x="1209" 
d="M140 1434h979v-222h-739v-315h573v-220h-573v-455h739v-222h-979v1434z" />
    <glyph glyph-name="ecircumflex" unicode="&#xea;" horiz-adv-x="1209" 
d="M140 1434h979v-222h-739v-315h573v-220h-573v-455h739v-222h-979v1434zM523 1838h193l269 -295h-225l-140 151l-141 -151h-224z" />
    <glyph glyph-name="edieresis" unicode="&#xeb;" horiz-adv-x="1209" 
d="M140 1434h979v-222h-739v-315h573v-220h-573v-455h739v-222h-979v1434zM315 1780h230v-221h-230v221zM696 1780h229v-221h-229v221z" />
    <glyph glyph-name="egrave" unicode="&#xe8;" horiz-adv-x="1209" 
d="M140 1434h979v-222h-739v-315h573v-220h-573v-455h739v-222h-979v1434zM326 1836h261l144 -301h-184z" />
    <glyph glyph-name="f" unicode="f" horiz-adv-x="1184" 
d="M140 1434h979v-222h-739v-315h573v-222h-573v-675h-240v1434z" />
    <glyph glyph-name="g" unicode="g" horiz-adv-x="1591" 
d="M1258 1279l-140 -183c-85 76 -194 119 -319 119c-285 0 -486 -216 -486 -498c0 -273 199 -495 486 -495c252 0 455 173 481 451h-504v223h725c14 -57 22 -117 22 -179c0 -404 -313 -717 -724 -717c-403 0 -729 303 -729 717c0 404 315 718 729 718
c175 0 335 -55 459 -156z" />
    <glyph glyph-name="h" unicode="h" horiz-adv-x="1476" 
d="M1096 1434h241v-1434h-241v673h-717v-673h-239v1434h239v-537h717v537z" />
    <glyph glyph-name="iacute" unicode="&#xed;" horiz-adv-x="520" 
d="M140 0v1434h240v-1434h-240zM149 1534l144 301h261l-221 -301h-184z" />
    <glyph glyph-name="i" unicode="i" horiz-adv-x="520" 
d="M140 0v1434h240v-1434h-240z" />
    <glyph glyph-name="icircumflex" unicode="&#xee;" horiz-adv-x="520" 
d="M140 0v1434h240v-1434h-240zM161 1836h193l269 -295h-225l-140 151l-141 -151h-224z" />
    <glyph glyph-name="idieresis" unicode="&#xef;" horiz-adv-x="520" 
d="M140 0v1434h240v-1434h-240zM-47 1778h230v-221h-230v221zM334 1778h229v-221h-229v221z" />
    <glyph glyph-name="igrave" unicode="&#xec;" horiz-adv-x="520" 
d="M140 0v1434h240v-1434h-240zM-36 1834h261l144 -301h-184z" />
    <glyph glyph-name="j" unicode="j" horiz-adv-x="789" 
d="M1 55l113 212c31 -19 66 -28 104 -28c89 0 158 57 181 130c9 29 13 67 13 122v943h240v-816c0 -89 -2 -153 -6 -209c-16 -221 -182 -409 -428 -409c-77 0 -150 18 -217 55z" />
    <glyph glyph-name="k" unicode="k" horiz-adv-x="1329" 
d="M863 1434h307l-474 -516c209 -306 415 -612 623 -918h-286l-498 742l-156 -170v-572h-240v1434h240v-540z" />
    <glyph glyph-name="l" unicode="l" horiz-adv-x="1178" 
d="M140 1435h240v-1211h740v-224h-980v1435z" />
    <glyph glyph-name="m" unicode="m" horiz-adv-x="1779" 
d="M140 1434h129l621 -747l620 747h130v-1434h-240v979l-510 -623l-511 623v-979h-239v1434z" />
    <glyph glyph-name="ntilde" unicode="&#xf1;" horiz-adv-x="1546" 
d="M379 0h-239v1434h129l897 -1000v1000h240v-1434h-129l-898 1001v-1001zM1013 1830h156c-6 -174 -84 -277 -226 -277c-139 0 -235 97 -312 97c-62 0 -90 -51 -96 -107h-156c6 176 85 278 227 278c138 0 235 -97 311 -97c63 0 91 51 96 106z" />
    <glyph glyph-name="n" unicode="n" horiz-adv-x="1546" 
d="M379 0h-239v1434h129l897 -1000v1000h240v-1434h-129l-898 1001v-1001z" />
    <glyph glyph-name="oacute" unicode="&#xf3;" horiz-adv-x="1597" 
d="M1527 717c0 -404 -311 -717 -729 -717s-728 313 -728 717s310 717 728 717s729 -313 729 -717zM1282 717c0 279 -196 495 -484 495c-287 0 -484 -216 -484 -495s197 -493 484 -493c288 0 484 214 484 493zM689 1536l144 301h261l-221 -301h-184z" />
    <glyph glyph-name="o" unicode="o" horiz-adv-x="1597" 
d="M1527 717c0 -404 -311 -717 -729 -717s-728 313 -728 717s310 717 728 717s729 -313 729 -717zM1282 717c0 279 -196 495 -484 495c-287 0 -484 -216 -484 -495s197 -493 484 -493c288 0 484 214 484 493z" />
    <glyph glyph-name="ocircumflex" unicode="&#xf4;" horiz-adv-x="1597" 
d="M1527 717c0 -404 -311 -717 -729 -717s-728 313 -728 717s310 717 728 717s729 -313 729 -717zM1282 717c0 279 -196 495 -484 495c-287 0 -484 -216 -484 -495s197 -493 484 -493c288 0 484 214 484 493zM701 1838h193l269 -295h-225l-140 151l-141 -151h-224z" />
    <glyph glyph-name="odieresis" unicode="&#xf6;" horiz-adv-x="1597" 
d="M1527 717c0 -404 -311 -717 -729 -717s-728 313 -728 717s310 717 728 717s729 -313 729 -717zM1282 717c0 279 -196 495 -484 495c-287 0 -484 -216 -484 -495s197 -493 484 -493c288 0 484 214 484 493zM493 1780h230v-221h-230v221zM874 1780h229v-221h-229v221z" />
    <glyph glyph-name="ograve" unicode="&#xf2;" horiz-adv-x="1597" 
d="M1527 717c0 -404 -311 -717 -729 -717s-728 313 -728 717s310 717 728 717s729 -313 729 -717zM1282 717c0 279 -196 495 -484 495c-287 0 -484 -216 -484 -495s197 -493 484 -493c288 0 484 214 484 493zM504 1836h261l144 -301h-184z" />
    <glyph glyph-name="oslash" unicode="&#xf8;" horiz-adv-x="1597" 
d="M435 -68h-241c45 75 90 150 137 226c-162 130 -261 330 -261 559c0 404 310 717 728 717c104 0 201 -20 288 -55l76 123h241l-139 -226c163 -130 263 -330 263 -559c0 -404 -311 -717 -729 -717c-104 0 -201 19 -288 54zM457 357c170 276 341 552 512 827
c-52 18 -110 28 -171 28c-287 0 -484 -216 -484 -495c0 -144 52 -271 143 -360zM1282 717c0 143 -52 270 -142 359c-171 -274 -339 -551 -510 -825c51 -18 107 -27 168 -27c288 0 484 214 484 493z" />
    <glyph glyph-name="otilde" unicode="&#xf5;" horiz-adv-x="1597" 
d="M1527 717c0 -404 -311 -717 -729 -717s-728 313 -728 717s310 717 728 717s729 -313 729 -717zM1282 717c0 279 -196 495 -484 495c-287 0 -484 -216 -484 -495s197 -493 484 -493c288 0 484 214 484 493zM1042 1831h156c-6 -174 -84 -277 -226 -277
c-139 0 -235 97 -312 97c-62 0 -90 -51 -96 -107h-156c6 176 85 278 227 278c138 0 235 -97 311 -97c63 0 91 51 96 106z" />
    <glyph glyph-name="oe" unicode="&#x153;" horiz-adv-x="1861" 
d="M1772 1213h-734v-316h568v-220h-568v-454h734v-223h-972c-431 0 -730 323 -730 718c0 408 324 729 754 716h948v-221zM314 718c0 -277 197 -497 485 -497v994c-295 -1 -485 -222 -485 -497z" />
    <glyph glyph-name="p" unicode="p" horiz-adv-x="1315" 
d="M379 831h402c63 0 95 5 124 17c68 28 120 88 120 172c0 83 -50 144 -120 173c-29 12 -60 18 -125 18h-401v-380zM379 0h-239v1434h670c111 0 184 -19 246 -55c124 -67 205 -196 205 -358c0 -158 -81 -289 -206 -357c-62 -35 -134 -55 -245 -55h-431v-609z" />
    <glyph glyph-name="q" unicode="q" horiz-adv-x="1601" 
d="M1526 717c0 -196 -78 -373 -206 -502l175 -234l-193 -143l-175 238c-99 -49 -211 -76 -330 -76c-417 0 -728 312 -728 717c0 403 311 717 728 717c419 0 729 -314 729 -717zM1282 717c0 279 -197 494 -485 494c-287 0 -483 -215 -483 -494c0 -280 196 -494 483 -494
c288 0 485 214 485 494z" />
    <glyph glyph-name="r" unicode="r" horiz-adv-x="1376" 
d="M379 0h-239v1434h670c110 0 183 -20 245 -55c125 -66 206 -195 206 -358c0 -91 -26 -173 -73 -239c-47 -67 -110 -112 -183 -138c-16 -6 -32 -11 -50 -16l381 -628h-277l-362 610h-318v-610zM379 831h401c63 0 95 5 124 17c69 29 120 89 120 172s-50 144 -120 173
c-28 12 -60 17 -124 17h-401v-379z" />
    <glyph glyph-name="scaron" unicode="&#x161;" horiz-adv-x="1256" 
d="M66 257l149 170c124 -125 283 -203 445 -203c163 0 297 83 297 210c0 157 -204 186 -418 230c-236 49 -448 133 -448 370c0 223 179 401 491 401c177 0 365 -66 515 -196l-141 -169c-98 91 -240 146 -378 146c-141 0 -254 -63 -254 -163c0 -114 132 -144 347 -183
c226 -39 523 -115 523 -437c0 -247 -226 -433 -530 -433c-194 0 -411 76 -598 257zM701 1540h-193l-268 295h224l141 -151l140 151h225z" />
    <glyph glyph-name="s" unicode="s" horiz-adv-x="1256" 
d="M66 257l149 170c124 -125 283 -203 445 -203c163 0 297 83 297 210c0 157 -204 186 -418 230c-236 49 -448 133 -448 370c0 223 179 401 491 401c177 0 365 -66 515 -196l-141 -169c-98 91 -240 146 -378 146c-141 0 -254 -63 -254 -163c0 -114 132 -144 347 -183
c226 -39 523 -115 523 -437c0 -247 -226 -433 -530 -433c-194 0 -411 76 -598 257z" />
    <glyph glyph-name="t" unicode="t" horiz-adv-x="1336" 
d="M62 1435h1212v-224h-487v-1211h-240v1211h-485v224z" />
    <glyph glyph-name="uacute" unicode="&#xfa;" horiz-adv-x="1446" 
d="M128 1435h240v-805c0 -64 7 -110 20 -154c44 -144 161 -252 335 -252s292 108 336 252c13 44 20 90 20 154v805h239v-803c0 -83 -10 -149 -28 -209c-72 -249 -281 -423 -567 -423c-285 0 -495 174 -566 423c-19 60 -29 126 -29 209v803zM615 1534l144 301h261l-221 -301
h-184z" />
    <glyph glyph-name="u" unicode="u" horiz-adv-x="1446" 
d="M128 1435h240v-805c0 -64 7 -110 20 -154c44 -144 161 -252 335 -252s292 108 336 252c13 44 20 90 20 154v805h239v-803c0 -83 -10 -149 -28 -209c-72 -249 -281 -423 -567 -423c-285 0 -495 174 -566 423c-19 60 -29 126 -29 209v803z" />
    <glyph glyph-name="ucircumflex" unicode="&#xfb;" horiz-adv-x="1446" 
d="M128 1435h240v-805c0 -64 7 -110 20 -154c44 -144 161 -252 335 -252s292 108 336 252c13 44 20 90 20 154v805h239v-803c0 -83 -10 -149 -28 -209c-72 -249 -281 -423 -567 -423c-285 0 -495 174 -566 423c-19 60 -29 126 -29 209v803zM627 1836h193l269 -295h-225
l-140 151l-141 -151h-224z" />
    <glyph glyph-name="udieresis" unicode="&#xfc;" horiz-adv-x="1446" 
d="M128 1435h240v-805c0 -64 7 -110 20 -154c44 -144 161 -252 335 -252s292 108 336 252c13 44 20 90 20 154v805h239v-803c0 -83 -10 -149 -28 -209c-72 -249 -281 -423 -567 -423c-285 0 -495 174 -566 423c-19 60 -29 126 -29 209v803zM419 1778h230v-221h-230v221z
M800 1778h229v-221h-229v221z" />
    <glyph glyph-name="ugrave" unicode="&#xf9;" horiz-adv-x="1446" 
d="M128 1435h240v-805c0 -64 7 -110 20 -154c44 -144 161 -252 335 -252s292 108 336 252c13 44 20 90 20 154v805h239v-803c0 -83 -10 -149 -28 -209c-72 -249 -281 -423 -567 -423c-285 0 -495 174 -566 423c-19 60 -29 126 -29 209v803zM430 1834h261l144 -301h-184z" />
    <glyph glyph-name="v" unicode="v" horiz-adv-x="1434" 
d="M1163 1435h260l-584 -1435h-244l-584 1435h260l446 -1116z" />
    <glyph glyph-name="w" unicode="w" horiz-adv-x="1938" 
d="M33 1433h248l270 -1039l316 1039h208l312 -1038l268 1038h250l-383 -1433h-231l-321 1025l-326 -1025h-229z" />
    <glyph glyph-name="x" unicode="x" horiz-adv-x="1428" 
d="M23 0l551 761l-488 672h294l333 -478l332 478h295l-487 -672l553 -761h-297l-396 569l-395 -569h-295z" />
    <glyph glyph-name="yacute" unicode="&#xfd;" horiz-adv-x="1297" 
d="M768 0h-239v566l-516 868h277l359 -625l358 625h277l-516 -868v-566zM540 1534l144 301h261l-221 -301h-184z" />
    <glyph glyph-name="y" unicode="y" horiz-adv-x="1297" 
d="M768 0h-239v566l-516 868h277l359 -625l358 625h277l-516 -868v-566z" />
    <glyph glyph-name="ydieresis" unicode="&#xff;" horiz-adv-x="1297" 
d="M768 0h-239v566l-516 868h277l359 -625l358 625h277l-516 -868v-566zM344 1778h230v-221h-230v221zM725 1778h229v-221h-229v221z" />
    <glyph glyph-name="z" unicode="z" horiz-adv-x="1276" 
d="M109 1211v223h1058v-121l-735 -1089h756v-224h-1100v123l738 1088h-717z" />
    <glyph glyph-name="zcaron" unicode="&#x17e;" horiz-adv-x="1276" 
d="M109 1211v223h1058v-121l-735 -1089h756v-224h-1100v123l738 1088h-717zM735 1540h-193l-268 295h224l141 -151l140 151h225z" />
    <glyph glyph-name="Thorn" unicode="&#xde;" horiz-adv-x="1315" 
d="M904 549c68 28 120 88 120 172c0 83 -50 144 -120 173c-28 12 -60 18 -124 18h-402v-380h402c63 0 95 5 124 17zM139 1433h239v-299h431c123 0 211 -24 272 -69c110 -70 180 -192 180 -344c0 -159 -81 -288 -207 -357c-62 -34 -133 -54 -245 -54h-431v-310h-239v1433z
" />
    <glyph glyph-name="thorn" unicode="&#xfe;" horiz-adv-x="1315" 
d="M904 549c68 28 120 88 120 172c0 83 -50 144 -120 173c-28 12 -60 18 -124 18h-402v-380h402c63 0 95 5 124 17zM139 1433h239v-299h431c123 0 211 -24 272 -69c110 -70 180 -192 180 -344c0 -159 -81 -288 -207 -357c-62 -34 -133 -54 -245 -54h-431v-310h-239v1433z
" />
    <glyph glyph-name="uni0450" unicode="&#x450;" horiz-adv-x="1209" 
d="M140 1434h979v-222h-739v-315h573v-220h-573v-455h739v-222h-979v1434zM327 1845h269l159 -310h-193c-79 103 -158 207 -235 310z" />
  </font>
</defs>
</svg>
